<svg width="79" height="186" viewBox="0 0 79 186" fill="none" xmlns="http://www.w3.org/2000/svg">
<path opacity="0.75" fill-rule="evenodd" clip-rule="evenodd" d="M15.3062 61.5439L15.3062 63.074L16.8363 63.074L16.8363 61.5439L15.3062 61.5439ZM0.000250153 76.8501L0.000250078 78.3802L1.53031 78.3802L1.53031 76.8501L0.000250153 76.8501ZM15.3062 76.8501L15.3062 78.3802L16.8363 78.3802L16.8363 76.8501L15.3062 76.8501ZM30.6112 76.8501L30.6112 78.3802L32.1413 78.3802L32.1413 76.8501L30.6112 76.8501ZM45.9172 76.8501L45.9172 78.3802L47.4473 78.3802L47.4473 76.8501L45.9172 76.8501ZM61.2226 76.8501L61.2226 78.3802L62.7536 78.3802L62.7536 76.8501L61.2226 76.8501ZM76.5285 76.8501L76.5285 78.3802L78.0586 78.3802L78.0586 76.8501L76.5285 76.8501ZM0.000249403 92.1558L0.000249328 93.6858L1.53031 93.6858L1.53031 92.1558L0.000249403 92.1558ZM15.3062 92.1558L15.3062 93.6858L16.8363 93.6858L16.8363 92.1558L15.3062 92.1558ZM30.6112 92.1558L30.6112 93.6858L32.1413 93.6858L32.1413 92.1558L30.6112 92.1558ZM45.9172 92.1558L45.9172 93.6858L47.4473 93.6858L47.4473 92.1558L45.9172 92.1558ZM61.2226 92.1558L61.2226 93.6858L62.7536 93.6858L62.7536 92.1558L61.2226 92.1558ZM76.5285 92.1558L76.5285 93.6858L78.0586 93.6858L78.0586 92.1558L76.5285 92.1558ZM0.000256282 107.461L0.000256207 108.991L1.53031 108.991L1.53031 107.461L0.000256282 107.461ZM15.3062 107.461L15.3062 108.991L16.8363 108.991L16.8363 107.461L15.3062 107.461ZM30.6112 107.461L30.6112 108.991L32.1413 108.991L32.1413 107.461L30.6112 107.461ZM45.9172 107.461L45.9172 108.991L47.4473 108.991L47.4473 107.461L45.9172 107.461ZM61.2226 107.461L61.2226 108.991L62.7536 108.991L62.7536 107.461L61.2226 107.461ZM76.5285 107.461L76.5285 108.991L78.0586 108.991L78.0586 107.461L76.5285 107.461ZM0.000255531 122.767L0.000255456 124.297L1.53031 124.297L1.53031 122.767L0.000255531 122.767ZM15.3062 122.767L15.3062 124.297L16.8363 124.297L16.8363 122.767L15.3062 122.767ZM30.6112 122.767L30.6112 124.297L32.1413 124.297L32.1413 122.767L30.6112 122.767ZM45.9172 122.767L45.9172 124.297L47.4473 124.297L47.4473 122.767L45.9172 122.767ZM61.2226 122.767L61.2226 124.297L62.7536 124.297L62.7536 122.767L61.2226 122.767ZM76.5285 122.767L76.5285 124.297L78.0586 124.297L78.0586 122.767L76.5285 122.767ZM0.000254781 138.072L0.000254706 139.602L1.53031 139.602L1.53031 138.072L0.000254781 138.072ZM15.3062 138.072L15.3062 139.602L16.8363 139.602L16.8363 138.072L15.3062 138.072ZM30.6112 138.072L30.6112 139.602L32.1413 139.602L32.1413 138.072L30.6112 138.072ZM45.9172 138.072L45.9172 139.602L47.4473 139.602L47.4473 138.072L45.9172 138.072ZM61.2226 138.072L61.2226 139.602L62.7536 139.602L62.7536 138.072L61.2226 138.072ZM76.5285 138.072L76.5285 139.602L78.0586 139.602L78.0586 138.072L76.5285 138.072ZM0.000254031 153.377L0.000253956 154.907L1.53031 154.907L1.53031 153.377L0.000254031 153.377ZM15.3062 153.377L15.3062 154.907L16.8363 154.907L16.8363 153.377L15.3062 153.377ZM30.6112 153.377L30.6112 154.907L32.1413 154.907L32.1413 153.377L30.6112 153.377ZM45.9172 153.377L45.9172 154.907L47.4473 154.907L47.4473 153.377L45.9172 153.377ZM61.2226 153.377L61.2226 154.907L62.7536 154.907L62.7536 153.377L61.2226 153.377ZM76.5285 153.377L76.5285 154.907L78.0586 154.907L78.0586 153.377L76.5285 153.377ZM0.000253281 168.684L0.000253206 170.214L1.53031 170.214L1.53031 168.684L0.000253281 168.684ZM15.3062 168.684L15.3062 170.214L16.8363 170.214L16.8363 168.684L15.3062 168.684ZM30.6112 168.684L30.6112 170.214L32.1413 170.214L32.1413 168.684L30.6112 168.684ZM45.9172 168.684L45.9172 170.214L47.4473 170.214L47.4473 168.684L45.9172 168.684ZM61.2226 168.684L61.2226 170.214L62.7536 170.214L62.7536 168.684L61.2226 168.684ZM76.5285 168.684L76.5285 170.214L78.0586 170.214L78.0586 168.684L76.5285 168.684ZM0.00025253 183.988L0.000252455 185.518L1.53031 185.518L1.53031 183.988L0.00025253 183.988ZM15.3062 183.988L15.3062 185.518L16.8363 185.518L16.8363 183.988L15.3062 183.988ZM30.6112 183.988L30.6112 185.518L32.1413 185.518L32.1413 183.988L30.6112 183.988ZM45.9172 183.988L45.9172 185.518L47.4473 185.518L47.4473 183.988L45.9172 183.988ZM61.2226 183.988L61.2226 185.518L62.7536 185.518L62.7536 183.988L61.2226 183.988ZM76.5285 183.988L76.5285 185.518L78.0586 185.518L78.0586 183.988L76.5285 183.988ZM0.000253916 0.0859345L0.000253841 1.61599L1.53031 1.61599L1.53031 0.0859345L0.000253916 0.0859345ZM15.3062 0.0859351L15.3062 1.61599L16.8363 1.61599L16.8363 0.0859351L15.3062 0.0859351ZM30.6112 0.0859357L30.6112 1.61599L32.1413 1.61599L32.1413 0.0859357L30.6112 0.0859357ZM45.9172 0.0859362L45.9172 1.61599L47.4473 1.61599L47.4473 0.0859363L45.9172 0.0859362ZM61.2226 0.0859368L61.2226 1.61599L62.7536 1.61599L62.7536 0.0859369L61.2226 0.0859368ZM76.5285 0.0859374L76.5285 1.616L78.0586 1.616L78.0586 0.0859375L76.5285 0.0859374ZM0.000253165 15.3921L0.00025309 16.9221L1.53031 16.9221L1.53031 15.3921L0.000253165 15.3921ZM15.3062 15.3921L15.3062 16.9221L16.8363 16.9221L16.8363 15.3921L15.3062 15.3921ZM30.6112 15.3921L30.6112 16.9221L32.1413 16.9221L32.1413 15.3921L30.6112 15.3921ZM45.9172 15.3921L45.9172 16.9221L47.4473 16.9221L47.4473 15.3921L45.9172 15.3921ZM61.2226 15.3921L61.2226 16.9221L62.7536 16.9221L62.7536 15.3921L61.2226 15.3921ZM76.5285 15.3921L76.5285 16.9221L78.0586 16.9221L78.0586 15.3921L76.5285 15.3921ZM0.000252415 30.6978L0.00025234 32.2278L1.53031 32.2278L1.53031 30.6978L0.000252415 30.6978ZM15.3062 30.6978L15.3062 32.2278L16.8363 32.2278L16.8363 30.6978L15.3062 30.6978ZM30.6112 30.6978L30.6112 32.2278L32.1413 32.2278L32.1413 30.6978L30.6112 30.6978ZM45.9172 30.6978L45.9172 32.2278L47.4473 32.2278L47.4473 30.6978L45.9172 30.6978ZM61.2226 30.6978L61.2226 32.2278L62.7536 32.2278L62.7536 30.6978L61.2226 30.6978ZM76.5285 30.6978L76.5285 32.2278L78.0586 32.2278L78.0586 30.6978L76.5285 30.6978ZM0.000251665 46.0034L0.00025159 47.5335L1.53031 47.5335L1.53031 46.0034L0.000251665 46.0034ZM15.3062 46.0034L15.3062 47.5335L16.8363 47.5335L16.8363 46.0034L15.3062 46.0034ZM30.6112 46.0034L30.6112 47.5335L32.1413 47.5335L32.1413 46.0034L30.6112 46.0034ZM45.9172 46.0034L45.9172 47.5335L47.4473 47.5335L47.4473 46.0034L45.9172 46.0034ZM61.2226 46.0034L61.2226 47.5335L62.7536 47.5335L62.7536 46.0034L61.2226 46.0034ZM76.5285 46.0029L76.5285 47.533L78.0586 47.533L78.0586 46.0029L76.5285 46.0029ZM0.000250915 61.3091L0.00025084 62.8391L1.53031 62.8391L1.53031 61.3091L0.000250915 61.3091ZM15.3062 61.3091L15.3062 62.8391L16.8363 62.8391L16.8363 61.3091L15.3062 61.3091ZM30.6112 61.3091L30.6112 62.8391L32.1413 62.8391L32.1413 61.3091L30.6112 61.3091ZM45.9172 61.3091L45.9172 62.8391L47.4473 62.8391L47.4473 61.3091L45.9172 61.3091ZM61.2226 61.3091L61.2226 62.8391L62.7536 62.8391L62.7536 61.3091L61.2226 61.3091ZM76.5285 61.3091L76.5285 62.8391L78.0586 62.8391L78.0586 61.3091L76.5285 61.3091Z" fill="white"/>
</svg>
