<svg width="68" height="267" viewBox="0 0 68 267" fill="none" xmlns="http://www.w3.org/2000/svg">
<path fill-rule="evenodd" clip-rule="evenodd" d="M0.000603572 -2.63083e-06L0.000603508 1.32377L1.32359 1.32377L1.32359 -2.57926e-06L0.000603572 -2.63083e-06ZM13.2353 -2.11496e-06L13.2353 1.32377L14.5583 1.32377L14.5583 -2.06339e-06L13.2353 -2.11496e-06ZM26.469 -1.59913e-06L26.469 1.32377L27.792 1.32377L27.792 -1.54757e-06L26.469 -1.59913e-06ZM39.7037 -1.08326e-06L39.7037 1.32377L41.0267 1.32377L41.0267 -1.0317e-06L39.7037 -1.08326e-06ZM52.9377 -5.67417e-07L52.9377 1.32377L54.2615 1.32377L54.2615 -5.15827e-07L52.9377 -5.67417e-07ZM66.1716 -5.15813e-08L66.1716 1.32377L67.4946 1.32377L67.4946 0L66.1716 -5.15813e-08ZM0.000602924 13.2349L0.000602859 14.5579L1.32359 14.5579L1.32359 13.2349L0.000602924 13.2349ZM13.2353 13.2349L13.2353 14.5579L14.5583 14.5579L14.5583 13.2349L13.2353 13.2349ZM26.469 13.2349L26.469 14.5579L27.792 14.5579L27.792 13.2349L26.469 13.2349ZM39.7037 13.2349L39.7037 14.5579L41.0267 14.5579L41.0267 13.2349L39.7037 13.2349ZM52.9377 13.2349L52.9377 14.5579L54.2615 14.5579L54.2615 13.2349L52.9377 13.2349ZM66.1721 13.2349L66.1721 14.5579L67.4951 14.5579L67.4951 13.2349L66.1721 13.2349ZM0.000602275 26.4683L0.00060221 27.7912L1.32359 27.7912L1.32359 26.4683L0.000602275 26.4683ZM13.2353 26.4683L13.2353 27.7913L14.5583 27.7913L14.5583 26.4683L13.2353 26.4683ZM26.469 26.4683L26.469 27.7913L27.792 27.7913L27.792 26.4683L26.469 26.4683ZM39.7037 26.4683L39.7037 27.7913L41.0267 27.7913L41.0267 26.4683L39.7037 26.4683ZM52.9377 26.4683L52.9377 27.7913L54.2615 27.7913L54.2615 26.4683L52.9377 26.4683ZM66.1721 26.4683L66.1721 27.7913L67.4951 27.7913L67.4951 26.4683L66.1721 26.4683ZM0.000601626 39.7031L0.000601561 41.0261L1.32359 41.0261L1.32359 39.7031L0.000601626 39.7031ZM13.2353 39.7031L13.2353 41.0261L14.5583 41.0261L14.5583 39.7031L13.2353 39.7031ZM26.469 39.7031L26.469 41.0261L27.792 41.0261L27.792 39.7031L26.469 39.7031ZM39.7037 39.7031L39.7037 41.0261L41.0267 41.0261L41.0267 39.7031L39.7037 39.7031ZM52.9377 39.7031L52.9377 41.0261L54.2615 41.0261L54.2615 39.7031L52.9377 39.7031ZM66.1721 39.7031L66.1721 41.0261L67.4951 41.0261L67.4951 39.7031L66.1721 39.7031ZM0.000600977 52.937L0.000600913 54.26L1.32359 54.26L1.32359 52.937L0.000600977 52.937ZM13.2353 52.937L13.2353 54.26L14.5583 54.26L14.5583 52.937L13.2353 52.937ZM26.469 52.937L26.469 54.26L27.792 54.26L27.792 52.937L26.469 52.937ZM39.7037 52.937L39.7037 54.26L41.0267 54.26L41.0267 52.937L39.7037 52.937ZM52.9377 52.937L52.9377 54.26L54.2615 54.26L54.2615 52.937L52.9377 52.937ZM66.1721 52.937L66.1721 54.26L67.4951 54.26L67.4951 52.937L66.1721 52.937ZM0.000600329 66.1714L0.000600264 67.4952L1.32359 67.4952L1.32359 66.1714L0.000600329 66.1714ZM13.2353 66.1714L13.2353 67.4952L14.5583 67.4952L14.5583 66.1714L13.2353 66.1714ZM26.469 66.1714L26.469 67.4952L27.792 67.4952L27.792 66.1714L26.469 66.1714ZM39.7037 66.1714L39.7037 67.4952L41.0267 67.4952L41.0267 66.1714L39.7037 66.1714ZM52.9377 66.1714L52.9377 67.4952L54.2615 67.4952L54.2615 66.1714L52.9377 66.1714ZM66.1721 66.1714L66.1721 67.4952L67.4951 67.4952L67.4951 66.1714L66.1721 66.1714ZM0.00059968 79.4062L0.000599615 80.7292L1.32359 80.7292L1.32359 79.4062L0.00059968 79.4062ZM13.2353 79.4062L13.2353 80.7292L14.5583 80.7292L14.5583 79.4062L13.2353 79.4062ZM26.469 79.4062L26.469 80.7292L27.792 80.7292L27.792 79.4062L26.469 79.4062ZM39.7037 79.4062L39.7037 80.7292L41.0267 80.7292L41.0267 79.4062L39.7037 79.4062ZM52.9377 79.4062L52.9377 80.7292L54.2615 80.7292L54.2615 79.4062L52.9377 79.4062ZM66.1721 79.4062L66.1721 80.7292L67.4951 80.7292L67.4951 79.4062L66.1721 79.4062ZM0.000599031 92.6396L0.000598966 93.9626L1.32359 93.9626L1.32359 92.6396L0.000599031 92.6396ZM13.2353 92.6396L13.2353 93.9626L14.5583 93.9626L14.5583 92.6396L13.2353 92.6396ZM26.469 92.6396L26.469 93.9626L27.792 93.9626L27.792 92.6396L26.469 92.6396ZM39.7037 92.6396L39.7037 93.9626L41.0267 93.9626L41.0267 92.6396L39.7037 92.6396ZM52.9377 92.6396L52.9377 93.9626L54.2615 93.9626L54.2615 92.6396L52.9377 92.6396ZM66.1721 92.6401L66.1721 93.9631L67.4951 93.9631L67.4951 92.6401L66.1721 92.6401ZM0.000606012 105.875L0.000605947 107.198L1.3236 107.198L1.3236 105.875L0.000606012 105.875ZM13.2353 105.875L13.2353 107.198L14.5583 107.198L14.5583 105.875L13.2353 105.875ZM26.469 105.875L26.469 107.198L27.792 107.198L27.792 105.875L26.469 105.875ZM39.7037 105.875L39.7037 107.198L41.0267 107.198L41.0267 105.875L39.7037 105.875ZM52.9377 105.875L52.9377 107.198L54.2615 107.198L54.2615 105.875L52.9377 105.875ZM66.1721 105.875L66.1721 107.198L67.4951 107.198L67.4951 105.875L66.1721 105.875ZM0.000605363 119.108L0.000605298 120.431L1.3236 120.431L1.3236 119.108L0.000605363 119.108ZM13.2353 119.108L13.2353 120.431L14.5583 120.431L14.5583 119.108L13.2353 119.108ZM26.469 119.108L26.469 120.431L27.792 120.431L27.792 119.108L26.469 119.108ZM39.7037 119.108L39.7037 120.431L41.0267 120.431L41.0267 119.108L39.7037 119.108ZM52.9377 119.108L52.9377 120.431L54.2615 120.431L54.2615 119.108L52.9377 119.108ZM66.1721 119.108L66.1721 120.431L67.4951 120.431L67.4951 119.108L66.1721 119.108ZM0.000604714 132.343L0.00060465 133.666L1.3236 133.666L1.3236 132.343L0.000604714 132.343ZM13.2353 132.343L13.2353 133.666L14.5583 133.666L14.5583 132.343L13.2353 132.343ZM26.469 132.343L26.469 133.666L27.792 133.666L27.792 132.343L26.469 132.343ZM39.7037 132.343L39.7037 133.666L41.0267 133.666L41.0267 132.343L39.7037 132.343ZM52.9377 132.343L52.9377 133.666L54.2615 133.666L54.2615 132.343L52.9377 132.343ZM66.1721 132.343L66.1721 133.666L67.4951 133.666L67.4951 132.343L66.1721 132.343ZM0.000604066 145.577L0.000604001 146.9L1.32359 146.9L1.32359 145.577L0.000604066 145.577ZM13.2353 145.577L13.2353 146.9L14.5583 146.9L14.5583 145.577L13.2353 145.577ZM26.469 145.577L26.469 146.9L27.792 146.9L27.792 145.577L26.469 145.577ZM39.7037 145.577L39.7037 146.9L41.0267 146.9L41.0267 145.577L39.7037 145.577ZM52.9377 145.577L52.9377 146.9L54.2615 146.9L54.2615 145.577L52.9377 145.577ZM66.1721 145.577L66.1721 146.901L67.4951 146.901L67.4951 145.577L66.1721 145.577ZM0.000603417 158.811L0.000603352 160.134L1.32359 160.134L1.32359 158.811L0.000603417 158.811ZM13.2353 158.811L13.2353 160.134L14.5583 160.134L14.5583 158.811L13.2353 158.811ZM26.469 158.811L26.469 160.134L27.792 160.134L27.792 158.811L26.469 158.811ZM39.7037 158.811L39.7037 160.134L41.0267 160.134L41.0267 158.811L39.7037 158.811ZM52.9377 158.811L52.9377 160.134L54.2615 160.134L54.2615 158.811L52.9377 158.811ZM66.1721 158.812L66.1721 160.135L67.4951 160.135L67.4951 158.812L66.1721 158.812ZM0.000602768 172.046L0.000602703 173.369L1.32359 173.369L1.32359 172.046L0.000602768 172.046ZM13.2353 172.046L13.2353 173.369L14.5583 173.369L14.5583 172.046L13.2353 172.046ZM26.469 172.046L26.469 173.369L27.792 173.369L27.792 172.046L26.469 172.046ZM39.7037 172.046L39.7037 173.369L41.0267 173.369L41.0267 172.046L39.7037 172.046ZM52.9377 172.046L52.9377 173.369L54.2615 173.369L54.2615 172.046L52.9377 172.046ZM66.1721 172.046L66.1721 173.369L67.4951 173.369L67.4951 172.046L66.1721 172.046ZM0.00060212 185.28L0.000602055 186.603L1.32359 186.603L1.32359 185.28L0.00060212 185.28ZM13.2353 185.28L13.2353 186.603L14.5583 186.603L14.5583 185.28L13.2353 185.28ZM26.469 185.28L26.469 186.603L27.792 186.603L27.792 185.28L26.469 185.28ZM39.7037 185.28L39.7037 186.603L41.0267 186.603L41.0267 185.28L39.7037 185.28ZM52.9377 185.28L52.9377 186.603L54.2615 186.603L54.2615 185.28L52.9377 185.28ZM66.1721 185.28L66.1721 186.603L67.4951 186.603L67.4951 185.28L66.1721 185.28ZM0.000601471 198.515L0.000601406 199.838L1.32359 199.838L1.32359 198.515L0.000601471 198.515ZM13.2353 198.515L13.2353 199.838L14.5583 199.838L14.5583 198.515L13.2353 198.515ZM26.469 198.515L26.469 199.838L27.792 199.838L27.792 198.515L26.469 198.515ZM39.7037 198.515L39.7037 199.838L41.0267 199.838L41.0267 198.515L39.7037 198.515ZM52.9377 198.515L52.9377 199.838L54.2615 199.838L54.2615 198.515L52.9377 198.515ZM66.1721 198.515L66.1721 199.838L67.4951 199.838L67.4951 198.515L66.1721 198.515ZM0.000600822 211.748L0.000600757 213.072L1.32359 213.072L1.32359 211.748L0.000600822 211.748ZM13.2353 211.748L13.2353 213.072L14.5583 213.072L14.5583 211.748L13.2353 211.748ZM26.469 211.748L26.469 213.072L27.792 213.072L27.792 211.748L26.469 211.748ZM39.7037 211.748L39.7037 213.072L41.0267 213.072L41.0267 211.748L39.7037 211.748ZM52.9377 211.748L52.9377 213.072L54.2615 213.072L54.2615 211.748L52.9377 211.748ZM66.1721 211.748L66.1721 213.072L67.4951 213.072L67.4951 211.748L66.1721 211.748ZM0.000600173 224.983L0.000600108 226.306L1.32359 226.306L1.32359 224.983L0.000600173 224.983ZM13.2353 224.983L13.2353 226.306L14.5583 226.306L14.5583 224.983L13.2353 224.983ZM26.469 224.983L26.469 226.306L27.792 226.306L27.792 224.983L26.469 224.983ZM39.7037 224.983L39.7037 226.306L41.0267 226.306L41.0267 224.983L39.7037 224.983ZM52.9377 224.983L52.9377 226.306L54.2615 226.306L54.2615 224.983L52.9377 224.983ZM66.1721 224.983L66.1721 226.306L67.4951 226.306L67.4951 224.983L66.1721 224.983ZM0.000599525 238.217L0.00059946 239.54L1.32359 239.54L1.32359 238.217L0.000599525 238.217ZM13.2353 238.217L13.2353 239.54L14.5583 239.54L14.5583 238.217L13.2353 238.217ZM26.469 238.217L26.469 239.54L27.792 239.54L27.792 238.217L26.469 238.217ZM39.7037 238.217L39.7037 239.54L41.0267 239.54L41.0267 238.217L39.7037 238.217ZM52.9377 238.217L52.9377 239.54L54.2615 239.54L54.2615 238.217L52.9377 238.217ZM66.1721 238.217L66.1721 239.54L67.4951 239.54L67.4951 238.217L66.1721 238.217ZM0.000606505 251.451L0.00060644 252.774L1.3236 252.774L1.3236 251.451L0.000606505 251.451ZM13.2353 251.451L13.2353 252.774L14.5583 252.774L14.5583 251.451L13.2353 251.451ZM26.469 251.451L26.469 252.774L27.792 252.774L27.792 251.451L26.469 251.451ZM39.7037 251.451L39.7037 252.774L41.0267 252.774L41.0267 251.451L39.7037 251.451ZM52.9377 251.451L52.9377 252.774L54.2615 252.774L54.2615 251.451L52.9377 251.451ZM66.1721 251.451L66.1721 252.774L67.4951 252.774L67.4951 251.451L66.1721 251.451ZM0.000605857 264.686L0.000605792 266.009L1.3236 266.009L1.3236 264.686L0.000605857 264.686ZM13.2353 264.686L13.2353 266.009L14.5583 266.009L14.5583 264.686L13.2353 264.686ZM26.469 264.686L26.469 266.009L27.792 266.009L27.792 264.686L26.469 264.686ZM39.7037 264.686L39.7037 266.009L41.0267 266.009L41.0267 264.686L39.7037 264.686ZM52.9377 264.686L52.9377 266.009L54.2615 266.009L54.2615 264.686L52.9377 264.686ZM66.1721 264.686L66.1721 266.009L67.4951 266.009L67.4951 264.686L66.1721 264.686Z" fill="#9DAFBD"/>
</svg>
