<svg width="243" height="47" viewBox="0 0 243 47" fill="none" xmlns="http://www.w3.org/2000/svg">
<path d="M51.6531 45.9394C55.8803 45.9394 59.168 44.329 61.5165 41.8464V45H72.2521V10.7803H61.5165V13.9338C59.168 11.3841 55.8803 9.84088 51.6531 9.84088C42.3937 9.84088 35.0129 17.49 35.0129 27.8901C35.0129 38.2902 42.3937 45.9394 51.6531 45.9394ZM53.5989 36.4115C48.9692 36.4115 45.6143 32.9895 45.6143 27.823C45.6143 22.7236 48.9692 19.3687 53.5989 19.3687C58.2287 19.3687 61.7848 22.7236 61.7848 27.823C61.7848 32.9895 58.2287 36.4115 53.5989 36.4115ZM119.659 9.84088C114.425 9.84088 110.735 11.9209 108.386 14.4035C106.373 11.5183 103.085 9.84088 98.4558 9.84088C94.3628 9.84088 91.1421 11.6525 88.995 14.1351V10.7803H78.2594V45H88.995V28.0243C88.995 22.7907 90.7395 19.7713 94.9667 19.7713C98.9925 19.7713 100.402 22.7236 100.402 27.2192V45H111.137V28.0243C111.137 22.7907 112.882 19.7713 117.109 19.7713C121.135 19.7713 122.544 22.7236 122.544 27.2192V45H133.279V24.8036C133.279 15.0745 127.777 9.84088 119.659 9.84088Z" fill="white"/>
<path d="M143.986 45.5368C147.475 45.5368 150.293 42.7858 150.293 39.2296C150.293 35.8747 147.475 33.1237 143.986 33.1237C140.43 33.1237 137.612 35.8747 137.612 39.2296C137.612 42.7858 140.43 45.5368 143.986 45.5368ZM166.745 24.5413C163.573 24.5413 161.274 26.048 159.886 28.0304V16.0566H155.723V45H159.886V35.0879C159.886 31.0834 162.146 28.4269 165.635 28.4269C168.886 28.4269 170.551 30.5679 170.551 34.057V45H174.675V33.3037C174.675 27.9115 171.86 24.5413 166.745 24.5413ZM187.532 45.5154C190.744 45.5154 193.202 44.1277 194.708 41.9867V45H198.832V25.0568H194.708V28.0701C193.202 25.929 190.744 24.5413 187.532 24.5413C181.902 24.5413 177.62 29.0216 177.62 35.0086C177.62 41.0351 181.902 45.5154 187.532 45.5154ZM188.206 41.7885C184.4 41.7885 181.704 38.9338 181.704 35.0086C181.704 31.0834 184.4 28.2683 188.206 28.2683C191.854 28.2683 194.788 31.123 194.788 35.0086C194.788 38.9338 191.854 41.7885 188.206 41.7885ZM212.414 45.5154C217.727 45.5154 221.097 42.185 221.85 39.2906L218.004 38.2201C217.449 40.0439 215.308 41.7885 212.414 41.7885C208.528 41.7885 205.991 38.6166 205.991 35.0086C205.991 31.3609 208.528 28.2683 212.414 28.2683C215.308 28.2683 217.449 30.1318 218.004 31.9556L221.85 30.8455C221.097 27.9511 217.727 24.5413 212.374 24.5413C206.347 24.5413 201.946 29.0613 201.946 35.0086C201.946 40.9558 206.347 45.5154 212.414 45.5154ZM238.313 45H243.071L234.189 33.7002L242.159 25.0568H237.242L228.916 34.1363V16.0566H224.753V45H228.916V39.4096L231.573 36.5549L238.313 45Z" fill="#57FE2D"/>
<path d="M0 29.1334V17.7279C8.7762 17.7279 17.7519 8.8316 17.7519 -0.0646973H29.5199C29.5199 17.2717 17.1535 29.1334 0 29.1334Z" fill="white"/>
<path d="M29.4494 35.4097H0.0125732V46.7492H29.4494V35.4097Z" fill="white"/>
</svg>
