<svg width="232" height="54" viewBox="0 0 232 54" fill="none" xmlns="http://www.w3.org/2000/svg">
    <path d="M51.6531 45.9394C55.8803 45.9394 59.168 44.329 61.5165 41.8464V45H72.2521V10.7803H61.5165V13.9338C59.168 11.3841 55.8803 9.84088 51.6531 9.84088C42.3937 9.84088 35.0129 17.49 35.0129 27.8901C35.0129 38.2902 42.3937 45.9394 51.6531 45.9394ZM53.5989 36.4115C48.9692 36.4115 45.6143 32.9895 45.6143 27.823C45.6143 22.7236 48.9692 19.3687 53.5989 19.3687C58.2287 19.3687 61.7848 22.7236 61.7848 27.823C61.7848 32.9895 58.2287 36.4115 53.5989 36.4115ZM119.659 9.84088C114.425 9.84088 110.735 11.9209 108.386 14.4035C106.373 11.5183 103.085 9.84088 98.4558 9.84088C94.3628 9.84088 91.1421 11.6525 88.995 14.1351V10.7803H78.2594V45H88.995V28.0243C88.995 22.7907 90.7395 19.7713 94.9667 19.7713C98.9925 19.7713 100.402 22.7236 100.402 27.2192V45H111.137V28.0243C111.137 22.7907 112.882 19.7713 117.109 19.7713C121.135 19.7713 122.544 22.7236 122.544 27.2192V45H133.279V24.8036C133.279 15.0745 127.777 9.84088 119.659 9.84088Z" fill="white"/>
    <path d="M143.986 45.5368C147.475 45.5368 150.293 42.7858 150.293 39.2296C150.293 35.8747 147.475 33.1237 143.986 33.1237C140.43 33.1237 137.612 35.8747 137.612 39.2296C137.612 42.7858 140.43 45.5368 143.986 45.5368ZM167.023 24.5413C163.851 24.5413 161.392 25.929 159.886 28.0701V16.0566H155.723V45H159.886V41.9867C161.392 44.1277 163.851 45.5154 167.023 45.5154C172.653 45.5154 176.974 41.0351 176.974 35.0086C176.974 29.0216 172.653 24.5413 167.023 24.5413ZM166.349 41.7885C162.701 41.7885 159.767 38.9338 159.767 35.0086C159.767 31.123 162.701 28.2683 166.349 28.2683C170.155 28.2683 172.851 31.0834 172.851 35.0086C172.851 38.9338 170.155 41.7885 166.349 41.7885ZM180.049 45H184.212V16.0566H180.049V45ZM197.935 45.5154C204.041 45.5154 208.522 40.9955 208.522 35.0086C208.522 29.0613 204.041 24.5413 197.935 24.5413C191.83 24.5413 187.349 29.0613 187.349 35.0086C187.349 40.9955 191.83 45.5154 197.935 45.5154ZM197.935 41.7488C194.129 41.7488 191.393 38.8545 191.393 35.0482C191.393 31.2023 194.129 28.308 197.935 28.308C201.742 28.308 204.477 31.2023 204.477 35.0482C204.477 38.8545 201.742 41.7488 197.935 41.7488ZM227.368 25.0568V27.8718C225.821 25.8101 223.403 24.5413 220.35 24.5413C214.561 24.5413 210.398 28.7441 210.398 34.6517C210.398 40.3611 214.561 44.7621 220.35 44.7621C223.403 44.7621 225.821 43.4934 227.368 41.392V44.326C227.328 47.7358 225.306 50.3526 221.5 50.3526C218.645 50.3526 216.742 49.282 215.552 47.2996L211.905 48.6477C213.57 51.6213 216.623 53.8416 221.42 53.8416C227.487 53.8416 231.531 49.8371 231.531 44.2863V25.0568H227.368ZM220.984 41.0351C217.138 41.0351 214.482 38.339 214.482 34.6517C214.482 30.9644 217.138 28.308 220.984 28.308C224.672 28.308 227.487 30.9644 227.487 34.6517C227.487 38.339 224.672 41.0351 220.984 41.0351Z" fill="#1C74F8"/>
    <path d="M0 29.1334V17.7279C8.7762 17.7279 17.7519 8.8316 17.7519 -0.0646973H29.5199C29.5199 17.2717 17.1535 29.1334 0 29.1334Z" fill="white"/>
    <path d="M29.4494 35.4097H0.0125732V46.7492H29.4494V35.4097Z" fill="white"/>
</svg>
