<svg width="215" height="47" viewBox="0 0 215 47" fill="none" xmlns="http://www.w3.org/2000/svg">
    <path d="M51.6418 45.9501C46.9896 45.9501 43.0472 44.2246 39.8146 40.7736C36.6039 37.3227 34.9985 33.0308 34.9985 27.898C34.9985 22.7434 36.6039 18.4515 39.8146 15.0223C43.0472 11.5714 46.9896 9.84587 51.6418 9.84587C55.7044 9.84587 58.9916 11.211 61.5034 13.9412V10.796H72.2494V45H61.5034V41.8548C58.9042 44.585 55.617 45.9501 51.6418 45.9501ZM53.6076 36.4162C55.9883 36.4162 57.9432 35.619 59.4721 34.0246C61.0228 32.4301 61.7982 30.3661 61.7982 27.8325C61.7982 25.3207 61.0228 23.2894 59.4721 21.7386C57.9213 20.166 55.9665 19.3797 53.6076 19.3797C51.2924 19.3797 49.3812 20.166 47.8742 21.7386C46.3671 23.2894 45.6136 25.3207 45.6136 27.8325C45.6136 30.3879 46.3671 32.4629 47.8742 34.0573C49.3812 35.6299 51.2924 36.4162 53.6076 36.4162ZM119.642 9.84587C123.792 9.84587 127.101 11.1454 129.569 13.7446C132.037 16.3219 133.272 20.0132 133.272 24.8183V45H122.558V27.21C122.558 22.2519 120.745 19.7729 117.12 19.7729C113.144 19.7729 111.146 22.5249 111.124 28.029V45H100.411V27.21C100.411 22.2519 98.5979 19.7729 94.9722 19.7729C90.997 19.7729 89.0094 22.5249 89.0094 28.029V45H78.2633V10.796H89.0094V14.1378C91.4775 11.2765 94.6227 9.84587 98.445 9.84587C102.966 9.84587 106.275 11.3639 108.372 14.3999C111.233 11.3639 114.99 9.84587 119.642 9.84587Z" fill="white"/>
    <path d="M143.97 45.5242C142.179 45.5242 140.672 44.9236 139.449 43.7223C138.226 42.521 137.615 41.0248 137.615 39.2338C137.615 37.5302 138.226 36.0886 139.449 34.9092C140.694 33.7297 142.201 33.14 143.97 33.14C145.718 33.14 147.203 33.7297 148.426 34.9092C149.671 36.0886 150.294 37.5302 150.294 39.2338C150.294 41.0248 149.671 42.521 148.426 43.7223C147.203 44.9236 145.718 45.5242 143.97 45.5242ZM155.716 45V16.0573H159.878V45H155.716ZM168.291 21.0715C167.788 21.5619 167.168 21.8071 166.432 21.8071C165.697 21.8071 165.077 21.5619 164.574 21.0715C164.071 20.581 163.819 19.968 163.819 19.2323C163.819 18.5483 164.071 17.9546 164.574 17.4512C165.077 16.9479 165.697 16.6962 166.432 16.6962C167.168 16.6962 167.788 16.9479 168.291 17.4512C168.794 17.9546 169.046 18.5483 169.046 19.2323C169.046 19.968 168.794 20.581 168.291 21.0715ZM164.322 45V25.0596H168.446V45H164.322ZM183.964 24.5369C186.506 24.5369 188.462 25.3177 189.83 26.8794C191.198 28.4411 191.882 30.5835 191.882 33.3068V45H187.758V34.0618C187.758 32.2936 187.339 30.9126 186.5 29.9188C185.674 28.925 184.454 28.4281 182.841 28.4281C181.099 28.4281 179.705 29.0347 178.659 30.248C177.614 31.4612 177.091 33.0745 177.091 35.0879V45H172.929V25.0596H177.091V28.0216C178.743 25.6984 181.034 24.5369 183.964 24.5369ZM209.626 45L202.889 36.5592L200.217 39.4051V45H196.055V16.0573H200.217V34.1392L208.542 25.0596H213.459L205.503 33.694L214.389 45H209.626Z" fill="#FE912D"/>
    <path d="M0 29.1334V17.7279C8.7762 17.7279 17.7519 8.8316 17.7519 -0.0646973H29.5199C29.5199 17.2717 17.1535 29.1334 0 29.1334Z" fill="white"/>
    <path d="M29.4494 35.4097H0.0125732V46.7492H29.4494V35.4097Z" fill="white"/>
</svg>
