<svg width="233" height="47" viewBox="0 0 233 47" fill="none" xmlns="http://www.w3.org/2000/svg">
    <path d="M51.6531 45.9394C55.8803 45.9394 59.168 44.329 61.5165 41.8464V45H72.2521V10.7803H61.5165V13.9338C59.168 11.3841 55.8803 9.84088 51.6531 9.84088C42.3937 9.84088 35.0129 17.49 35.0129 27.8901C35.0129 38.2902 42.3937 45.9394 51.6531 45.9394ZM53.5989 36.4115C48.9692 36.4115 45.6143 32.9895 45.6143 27.823C45.6143 22.7236 48.9692 19.3687 53.5989 19.3687C58.2287 19.3687 61.7848 22.7236 61.7848 27.823C61.7848 32.9895 58.2287 36.4115 53.5989 36.4115ZM119.659 9.84088C114.425 9.84088 110.735 11.9209 108.386 14.4035C106.373 11.5183 103.085 9.84088 98.4558 9.84088C94.3628 9.84088 91.1421 11.6525 88.995 14.1351V10.7803H78.2594V45H88.995V28.0243C88.995 22.7907 90.7395 19.7713 94.9667 19.7713C98.9925 19.7713 100.402 22.7236 100.402 27.2192V45H111.137V28.0243C111.137 22.7907 112.882 19.7713 117.109 19.7713C121.135 19.7713 122.544 22.7236 122.544 27.2192V45H133.279V24.8036C133.279 15.0745 127.777 9.84088 119.659 9.84088Z" fill="white"/>
    <path d="M143.986 45.5368C147.475 45.5368 150.293 42.7858 150.293 39.2296C150.293 35.8747 147.475 33.1237 143.986 33.1237C140.43 33.1237 137.612 35.8747 137.612 39.2296C137.612 42.7858 140.43 45.5368 143.986 45.5368ZM166.904 40.9558C165.992 41.392 165.278 41.5902 164.287 41.5902C162.384 41.5902 161.432 40.4801 161.432 38.5373V28.7441H167.776V25.0568H161.432V18.3958H157.309V25.0568H153.661V28.7441H157.309V38.5373C157.309 42.6211 159.251 45.3172 163.534 45.3172C165.119 45.3172 166.428 45 167.934 44.3656L166.904 40.9558ZM179.108 45.5154C184.302 45.5154 187.434 42.5418 188.663 39.8457L184.857 38.7355C184.024 40.4801 182.161 41.9471 179.187 41.9471C175.143 41.9471 172.843 39.6078 172.566 36.317H188.782C188.862 35.7222 188.901 35.2465 188.901 34.6517C188.901 29.0216 185.214 24.5413 178.751 24.5413C172.566 24.5413 168.482 29.1009 168.482 35.0482C168.482 41.3523 172.883 45.5154 179.108 45.5154ZM172.566 33.5416C172.843 30.6869 175.183 28.1097 178.751 28.1097C182.399 28.1097 184.579 30.449 184.817 33.5019L172.566 33.5416ZM201.224 45.5154C206.537 45.5154 209.907 42.185 210.66 39.2906L206.814 38.2201C206.259 40.0439 204.118 41.7885 201.224 41.7885C197.338 41.7885 194.801 38.6166 194.801 35.0086C194.801 31.3609 197.338 28.2683 201.224 28.2683C204.118 28.2683 206.259 30.1318 206.814 31.9556L210.66 30.8455C209.907 27.9511 206.537 24.5413 201.184 24.5413C195.158 24.5413 190.757 29.0613 190.757 35.0086C190.757 40.9558 195.158 45.5154 201.224 45.5154ZM224.585 24.5413C221.414 24.5413 219.114 26.048 217.726 28.0304V16.0566H213.563V45H217.726V35.0879C217.726 31.0834 219.986 28.4269 223.475 28.4269C226.726 28.4269 228.392 30.5679 228.392 34.057V45H232.515V33.3037C232.515 27.9115 229.7 24.5413 224.585 24.5413Z" fill="#FF0000"/>
    <path d="M0 29.1334V17.7279C8.7762 17.7279 17.7519 8.8316 17.7519 -0.0646973H29.5199C29.5199 17.2717 17.1535 29.1334 0 29.1334Z" fill="white"/>
    <path d="M29.4494 35.4097H0.0125732V46.7492H29.4494V35.4097Z" fill="white"/>
</svg>
