<svg width="18" height="12" viewBox="0 0 18 12" fill="none" xmlns="http://www.w3.org/2000/svg">
    <path fill-rule="evenodd" clip-rule="evenodd" d="M0 0.687604L4.62857 0.685547C7.2 0.685547 8.22857 1.71309 8.22857 3.77023L8.2251 3.9954C8.20209 4.54386 8.02643 5.37928 6.68571 5.82738C7.71429 5.82738 9.25714 6.85595 9.25714 8.91309C9.25714 10.4092 8.28996 11.9053 5.41774 11.9937L5.14286 11.9978L0 11.9988V0.687604ZM13.8857 3.77026C16.9714 3.77026 18 5.61243 18 7.88454L17.9947 8.05879L17.9691 8.39883H11.8594C12.0075 10.0188 12.8541 10.456 13.8857 10.456C14.6 10.456 15.2228 10.2418 15.5904 9.57688L15.6651 9.4274H17.8035C17.3818 10.9343 16.2288 11.9988 13.8857 11.9988C10.8 11.9988 9.77143 10.1577 9.77143 7.88454C9.77143 5.61243 10.8 3.77026 13.8857 3.77026ZM4.62857 6.85597H2.57143V9.94169H4.62857C5.62114 9.9242 6.68571 9.6218 6.68571 8.39883C6.68571 7.17586 5.65714 6.85597 4.62857 6.85597ZM13.8857 5.31311C13.0241 5.31311 12.2945 5.62322 11.9882 6.66453L11.9386 6.85597H15.8328C15.5633 5.66077 14.7981 5.31311 13.8857 5.31311ZM4.82249 2.74271L2.57143 2.74169V4.79883L4.82249 4.7978C5.4241 4.78854 6.17143 4.69597 6.17143 3.77026C6.17143 2.84454 5.4241 2.75197 4.82249 2.74271ZM15.9425 1.71261V3.25547H11.8283V1.71261H15.9425Z" fill="white"/>
</svg>
