<svg width="19" height="19" viewBox="0 0 19 19" fill="none" xmlns="http://www.w3.org/2000/svg">
    <path fill-rule="evenodd" clip-rule="evenodd" d="M1.24896 1.24896C0.917014 1.5809 0.917014 2.1191 1.24896 2.45104L8.29792 9.5L1.24896 16.549C0.917014 16.8809 0.917014 17.4191 1.24896 17.751C1.5809 18.083 2.1191 18.083 2.45104 17.751L9.5 10.7021L16.549 17.751C16.8809 18.083 17.4191 18.083 17.751 17.751C18.083 17.4191 18.083 16.8809 17.751 16.549L10.7021 9.5L17.751 2.45104C18.083 2.1191 18.083 1.5809 17.751 1.24896C17.4191 0.917014 16.8809 0.917014 16.549 1.24896L9.5 8.29792L2.45104 1.24896C2.1191 0.917014 1.5809 0.917014 1.24896 1.24896Z" fill="white"/>
    <path d="M1.24896 2.45104L1.42574 2.27426L1.24896 2.45104ZM8.29792 9.5L8.47469 9.67678L8.65147 9.5L8.47469 9.32322L8.29792 9.5ZM1.24896 16.549L1.42574 16.7257H1.42574L1.24896 16.549ZM2.45104 17.751L2.62782 17.9278L2.45104 17.751ZM9.5 10.7021L9.67678 10.5253L9.5 10.3485L9.32322 10.5253L9.5 10.7021ZM16.549 17.751L16.3722 17.9278L16.549 17.751ZM17.751 16.549L17.9278 16.3722L17.751 16.549ZM10.7021 9.5L10.5253 9.32322L10.3485 9.5L10.5253 9.67678L10.7021 9.5ZM17.751 2.45104L17.9278 2.62782L17.751 2.45104ZM16.549 1.24896L16.7257 1.42574V1.42574L16.549 1.24896ZM9.5 8.29792L9.32322 8.47469L9.5 8.65147L9.67678 8.47469L9.5 8.29792ZM2.45104 1.24896L2.27426 1.42574L2.45104 1.24896ZM1.42574 2.27426C1.19142 2.03995 1.19142 1.66005 1.42574 1.42574L1.07218 1.07218C0.642606 1.50176 0.642606 2.19824 1.07218 2.62782L1.42574 2.27426ZM8.47469 9.32322L1.42574 2.27426L1.07218 2.62782L8.12114 9.67678L8.47469 9.32322ZM1.42574 16.7257L8.47469 9.67678L8.12114 9.32322L1.07218 16.3722L1.42574 16.7257ZM1.42574 17.5743C1.19142 17.34 1.19142 16.96 1.42574 16.7257L1.07218 16.3722C0.642606 16.8018 0.642606 17.4982 1.07218 17.9278L1.42574 17.5743ZM2.27426 17.5743C2.03995 17.8086 1.66005 17.8086 1.42574 17.5743L1.07218 17.9278C1.50176 18.3574 2.19824 18.3574 2.62782 17.9278L2.27426 17.5743ZM9.32322 10.5253L2.27426 17.5743L2.62782 17.9278L9.67678 10.8789L9.32322 10.5253ZM16.7257 17.5743L9.67678 10.5253L9.32322 10.8789L16.3722 17.9278L16.7257 17.5743ZM17.5743 17.5743C17.34 17.8086 16.96 17.8086 16.7257 17.5743L16.3722 17.9278C16.8018 18.3574 17.4982 18.3574 17.9278 17.9278L17.5743 17.5743ZM17.5743 16.7257C17.8086 16.96 17.8086 17.34 17.5743 17.5743L17.9278 17.9278C18.3574 17.4982 18.3574 16.8018 17.9278 16.3722L17.5743 16.7257ZM10.5253 9.67678L17.5743 16.7257L17.9278 16.3722L10.8789 9.32322L10.5253 9.67678ZM17.5743 2.27426L10.5253 9.32322L10.8789 9.67678L17.9278 2.62782L17.5743 2.27426ZM17.5743 1.42574C17.8086 1.66005 17.8086 2.03995 17.5743 2.27426L17.9278 2.62782C18.3574 2.19824 18.3574 1.50176 17.9278 1.07218L17.5743 1.42574ZM16.7257 1.42574C16.96 1.19142 17.34 1.19142 17.5743 1.42574L17.9278 1.07218C17.4982 0.642606 16.8018 0.642606 16.3722 1.07218L16.7257 1.42574ZM9.67678 8.47469L16.7257 1.42574L16.3722 1.07218L9.32322 8.12114L9.67678 8.47469ZM2.27426 1.42574L9.32322 8.47469L9.67678 8.12114L2.62782 1.07218L2.27426 1.42574ZM1.42574 1.42574C1.66005 1.19142 2.03995 1.19142 2.27426 1.42574L2.62782 1.07218C2.19824 0.642606 1.50176 0.642606 1.07218 1.07218L1.42574 1.42574Z" fill="white"/>
    <mask id="mask0" style="mask-type:alpha" maskUnits="userSpaceOnUse" x="0" y="0" width="19" height="19">
    <path fill-rule="evenodd" clip-rule="evenodd" d="M1.24896 1.24896C0.917014 1.5809 0.917014 2.1191 1.24896 2.45104L8.29792 9.5L1.24896 16.549C0.917014 16.8809 0.917014 17.4191 1.24896 17.751C1.5809 18.083 2.1191 18.083 2.45104 17.751L9.5 10.7021L16.549 17.751C16.8809 18.083 17.4191 18.083 17.751 17.751C18.083 17.4191 18.083 16.8809 17.751 16.549L10.7021 9.5L17.751 2.45104C18.083 2.1191 18.083 1.5809 17.751 1.24896C17.4191 0.917014 16.8809 0.917014 16.549 1.24896L9.5 8.29792L2.45104 1.24896C2.1191 0.917014 1.5809 0.917014 1.24896 1.24896Z" fill="white"/>
    <path d="M1.24896 2.45104L1.42574 2.27426L1.24896 2.45104ZM8.29792 9.5L8.47469 9.67678L8.65147 9.5L8.47469 9.32322L8.29792 9.5ZM1.24896 16.549L1.42574 16.7257H1.42574L1.24896 16.549ZM2.45104 17.751L2.62782 17.9278L2.45104 17.751ZM9.5 10.7021L9.67678 10.5253L9.5 10.3485L9.32322 10.5253L9.5 10.7021ZM16.549 17.751L16.3722 17.9278L16.549 17.751ZM17.751 16.549L17.9278 16.3722L17.751 16.549ZM10.7021 9.5L10.5253 9.32322L10.3485 9.5L10.5253 9.67678L10.7021 9.5ZM17.751 2.45104L17.9278 2.62782L17.751 2.45104ZM16.549 1.24896L16.7257 1.42574V1.42574L16.549 1.24896ZM9.5 8.29792L9.32322 8.47469L9.5 8.65147L9.67678 8.47469L9.5 8.29792ZM2.45104 1.24896L2.27426 1.42574L2.45104 1.24896ZM1.42574 2.27426C1.19142 2.03995 1.19142 1.66005 1.42574 1.42574L1.07218 1.07218C0.642606 1.50176 0.642606 2.19824 1.07218 2.62782L1.42574 2.27426ZM8.47469 9.32322L1.42574 2.27426L1.07218 2.62782L8.12114 9.67678L8.47469 9.32322ZM1.42574 16.7257L8.47469 9.67678L8.12114 9.32322L1.07218 16.3722L1.42574 16.7257ZM1.42574 17.5743C1.19142 17.34 1.19142 16.96 1.42574 16.7257L1.07218 16.3722C0.642606 16.8018 0.642606 17.4982 1.07218 17.9278L1.42574 17.5743ZM2.27426 17.5743C2.03995 17.8086 1.66005 17.8086 1.42574 17.5743L1.07218 17.9278C1.50176 18.3574 2.19824 18.3574 2.62782 17.9278L2.27426 17.5743ZM9.32322 10.5253L2.27426 17.5743L2.62782 17.9278L9.67678 10.8789L9.32322 10.5253ZM16.7257 17.5743L9.67678 10.5253L9.32322 10.8789L16.3722 17.9278L16.7257 17.5743ZM17.5743 17.5743C17.34 17.8086 16.96 17.8086 16.7257 17.5743L16.3722 17.9278C16.8018 18.3574 17.4982 18.3574 17.9278 17.9278L17.5743 17.5743ZM17.5743 16.7257C17.8086 16.96 17.8086 17.34 17.5743 17.5743L17.9278 17.9278C18.3574 17.4982 18.3574 16.8018 17.9278 16.3722L17.5743 16.7257ZM10.5253 9.67678L17.5743 16.7257L17.9278 16.3722L10.8789 9.32322L10.5253 9.67678ZM17.5743 2.27426L10.5253 9.32322L10.8789 9.67678L17.9278 2.62782L17.5743 2.27426ZM17.5743 1.42574C17.8086 1.66005 17.8086 2.03995 17.5743 2.27426L17.9278 2.62782C18.3574 2.19824 18.3574 1.50176 17.9278 1.07218L17.5743 1.42574ZM16.7257 1.42574C16.96 1.19142 17.34 1.19142 17.5743 1.42574L17.9278 1.07218C17.4982 0.642606 16.8018 0.642606 16.3722 1.07218L16.7257 1.42574ZM9.67678 8.47469L16.7257 1.42574L16.3722 1.07218L9.32322 8.12114L9.67678 8.47469ZM2.27426 1.42574L9.32322 8.47469L9.67678 8.12114L2.62782 1.07218L2.27426 1.42574ZM1.42574 1.42574C1.66005 1.19142 2.03995 1.19142 2.27426 1.42574L2.62782 1.07218C2.19824 0.642606 1.50176 0.642606 1.07218 1.07218L1.42574 1.42574Z" fill="white"/>
    </mask>
    <g mask="url(#mask0)">
        <rect x="-10.1714" y="-9.68555" width="37.8857" height="37.8857" fill="white" stroke="white" stroke-width="0.5"/>
    </g>
</svg>
