<svg width="19" height="18" viewBox="0 0 19 18" fill="none" xmlns="http://www.w3.org/2000/svg">
    <path fill-rule="evenodd" clip-rule="evenodd" d="M14.494 1.87014C12.974 0.697233 11.0686 -0.000488281 9.00032 -0.000488281C8.22234 -0.000488281 7.46741 0.098226 6.74789 0.284237C7.7329 1.40914 8.60923 2.77947 9.68433 4.77823L10.0505 5.46829L10.0896 5.54421L10.4483 5.32157C11.8772 4.41069 13.2298 3.25722 14.4587 1.91011L14.494 1.87014ZM5.53108 0.692285L5.59814 0.762661C6.58782 1.82342 7.45914 3.14139 8.54041 5.13228L8.72262 5.4704L9.06331 6.11528C7.15436 7.08954 5.14241 7.63001 3.13041 7.63001C2.22189 7.63001 0.95816 7.56279 0.129472 7.46461C0.657533 4.39723 2.73705 1.86051 5.53108 0.692285ZM18.0014 8.90323L17.9862 8.48557C17.858 6.21048 16.8848 4.16122 15.3754 2.64665L15.0342 3.01553C13.686 4.44049 12.2005 5.65148 10.6279 6.59176L10.7501 6.82862L10.9187 7.17107C11.1406 7.6346 11.3511 8.12538 11.5488 8.63768C12.2557 8.49014 12.9736 8.41286 13.6959 8.41286C15.0567 8.41286 16.7817 8.60216 18.0014 8.90323ZM9.60122 7.15846L9.70278 7.35865L9.88685 7.73435C10.0683 8.11695 10.2417 8.51985 10.4062 8.93959C7.29293 9.93738 4.48184 12.2781 2.59609 15.3238C0.991343 13.6989 0 11.465 0 8.99957C0 8.87643 0.00247333 8.75386 0.00737304 8.63192C0.637273 8.70597 1.4713 8.76162 2.24056 8.78763L2.5655 8.79694L3.1304 8.80391C5.34236 8.80391 7.53513 8.21574 9.60122 7.15846ZM17.9355 10.0992C16.8324 9.79381 15.0548 9.587 13.6959 9.587C13.1105 9.587 12.5264 9.64478 11.9487 9.75566C12.6818 11.9609 13.1902 14.4581 13.3967 16.8554C15.8407 15.4845 17.5799 13.0061 17.9355 10.0992ZM12.2429 17.1341C12.051 14.7423 11.5429 12.2324 10.8085 10.0454C7.923 10.957 5.28429 13.1624 3.52987 16.0467L3.48927 16.1159C5.01206 17.2969 6.92411 18 9.00033 18C10.1504 18 11.2501 17.7843 12.2611 17.3911L12.2429 17.1341Z" fill="white"/>
</svg>
