<svg width="18" height="18" viewBox="0 0 18 18" fill="none" xmlns="http://www.w3.org/2000/svg">
    <path fill-rule="evenodd" clip-rule="evenodd" d="M9 0.237305C4.0275 0.237305 0 4.26524 0 9.23326C0 13.2087 2.5785 16.58 6.15375 17.7682C6.60375 17.8529 6.76875 17.5748 6.76875 17.3364C6.76875 17.122 6.76125 16.5567 6.7575 15.807C4.254 16.3491 3.726 14.5993 3.726 14.5993C3.3165 13.5611 2.72475 13.2837 2.72475 13.2837C1.9095 12.7259 2.78775 12.7372 2.78775 12.7372C3.6915 12.8002 4.16625 13.6638 4.16625 13.6638C4.96875 15.0394 6.273 14.6421 6.7875 14.4119C6.8685 13.8302 7.10025 13.4344 7.3575 13.2087C5.35875 12.9838 3.258 12.2102 3.258 8.76322C3.258 7.78116 3.60675 6.97902 4.18425 6.3493C4.083 6.12216 3.77925 5.20757 4.263 3.96838C4.263 3.96838 5.01675 3.72698 6.738 4.89046C7.458 4.6903 8.223 4.59135 8.988 4.58685C9.753 4.59135 10.518 4.6903 11.238 4.89046C12.948 3.72698 13.7017 3.96838 13.7017 3.96838C14.1855 5.20757 13.8818 6.12216 13.7917 6.3493C14.3655 6.97902 14.7142 7.78116 14.7142 8.76322C14.7142 12.2192 12.6105 12.9801 10.608 13.2012C10.923 13.4711 11.2155 14.0229 11.2155 14.8655C11.2155 16.0694 11.2043 17.0365 11.2043 17.3289C11.2043 17.565 11.3617 17.8461 11.823 17.7562C15.4237 16.5762 18 13.2027 18 9.23326C18 4.26524 13.9703 0.237305 9 0.237305Z" fill="white"/>
</svg>
