<svg width="18" height="18" viewBox="0 0 18 18" fill="none" xmlns="http://www.w3.org/2000/svg">
    <path fill-rule="evenodd" clip-rule="evenodd" d="M14.8842 4.19389C14.8842 4.79009 14.4007 5.27341 13.8042 5.27341C13.2078 5.27341 12.7242 4.79009 12.7242 4.19389C12.7242 3.5977 13.2078 3.11438 13.8042 3.11438C14.4007 3.11438 14.8842 3.5977 14.8842 4.19389ZM9.00002 11.9946C7.34318 11.9946 6 10.652 6 8.99593C6 7.33983 7.34318 5.99725 9.00002 5.99725C10.6569 5.99725 12 7.33983 12 8.99593C12 10.652 10.6569 11.9946 9.00002 11.9946ZM9 4.3764C6.44758 4.3764 4.37836 6.44463 4.37836 8.99597C4.37836 11.5472 6.44758 13.6155 9 13.6155C11.5525 13.6155 13.6216 11.5472 13.6216 8.99597C13.6216 6.44463 11.5525 4.3764 9 4.3764ZM9 0C6.55573 0 6.2493 0.0103313 5.28933 0.0541163C4.33139 0.097831 3.67713 0.249848 3.10465 0.472287C2.51283 0.702176 2.01094 1.0098 1.51059 1.50991C1.01025 2.00996 0.702492 2.51163 0.4725 3.10325C0.250031 3.67548 0.097875 4.32937 0.0541406 5.28695C0.0103359 6.24642 0 6.55278 0 8.99595C0 11.4391 0.0103359 11.7455 0.0541406 12.705C0.097875 13.6625 0.250031 14.3164 0.4725 14.8887C0.702492 15.4801 1.01025 15.9819 1.51059 16.482C2.01094 16.9821 2.51283 17.2897 3.10465 17.5196C3.67713 17.7421 4.33139 17.8941 5.28933 17.9378C6.2493 17.9816 6.55573 17.9919 9 17.9919C11.4443 17.9919 11.7508 17.9816 12.7107 17.9378C13.6687 17.8941 14.3229 17.7421 14.8954 17.5196C15.4872 17.2897 15.9891 16.9821 16.4895 16.482C16.9897 15.9819 17.2975 15.4802 17.5275 14.8887C17.75 14.3164 17.9021 13.6625 17.9459 12.705C17.9897 11.7455 18 11.4391 18 8.99595C18 6.55278 17.9897 6.24642 17.9459 5.28695C17.9021 4.32937 17.75 3.67548 17.5275 3.10325C17.2975 2.51163 16.9897 2.00996 16.4895 1.50991C15.9891 1.0098 15.4872 0.702176 14.8954 0.472287C14.3229 0.249848 13.6687 0.097831 12.7107 0.0541163C11.7508 0.0103313 11.4443 0 9 0ZM8.99996 1.62091C11.4031 1.62091 11.6877 1.63005 12.6367 1.67334C13.5142 1.7134 13.9907 1.85994 14.3079 1.98307C14.728 2.14626 15.0279 2.34129 15.3428 2.65601C15.6576 2.9708 15.8528 3.27054 16.016 3.6904C16.1392 4.00744 16.2859 4.4838 16.3259 5.36084C16.3692 6.30942 16.3783 6.59391 16.3783 8.99597C16.3783 11.398 16.3692 11.6825 16.3259 12.631C16.2859 13.5082 16.1392 13.9845 16.016 14.3015C15.8528 14.7214 15.6576 15.0211 15.3428 15.3359C15.0279 15.6507 14.728 15.8457 14.3079 16.0088C13.9907 16.132 13.5142 16.2785 12.6367 16.3186C11.6879 16.3618 11.4032 16.371 8.99996 16.371C6.59675 16.371 6.31206 16.3618 5.36319 16.3186C4.48576 16.2785 4.00918 16.132 3.69207 16.0088C3.27196 15.8457 2.97207 15.6507 2.65714 15.3359C2.34229 15.0211 2.14724 14.7214 1.98397 14.3015C1.86071 13.9845 1.71411 13.5082 1.67411 12.6311C1.63072 11.6825 1.62158 11.398 1.62158 8.99597C1.62158 6.59391 1.63072 6.30942 1.67411 5.36084C1.71411 4.4838 1.86071 4.00744 1.98397 3.6904C2.14724 3.27054 2.34229 2.9708 2.65714 2.65601C2.97207 2.34129 3.27196 2.14626 3.69207 1.98307C4.00918 1.85994 4.48576 1.7134 5.36319 1.67334C6.3122 1.63005 6.59689 1.62091 8.99996 1.62091Z" fill="white"/>
</svg>
