<svg width="16" height="14" viewBox="0 0 16 14" fill="none" xmlns="http://www.w3.org/2000/svg">
    <path fill-rule="evenodd" clip-rule="evenodd" d="M7.4942 3.299V4.996C8.97566 2.04685 14.8001 1.99686 14.9971 6.27106L15.0022 6.496V13.996L11.9952 13.998V7.997C11.9952 3.83207 7.65869 4.96463 7.49872 7.84197L7.4942 7.995V13.998H4.5012V3.299H7.4942V4.996V3.299ZM2.993 3.4955V13.9975H0V3.4955H2.993ZM1.5002 0C2.3272 0 2.9972 0.67 2.9972 1.497C2.9972 2.323 2.3272 2.993 1.5002 2.993C0.6742 2.993 0.0042 2.323 0.0042 1.497C0.0042 0.67 0.6742 0 1.5002 0Z" fill="white"/>
</svg>
