<svg width="18" height="15" viewBox="0 0 18 15" fill="none" xmlns="http://www.w3.org/2000/svg">
    <path fill-rule="evenodd" clip-rule="evenodd" d="M15.879 2.27597C16.6413 1.82627 17.227 1.11421 17.5027 0.265668C16.7891 0.682096 15.9988 0.984476 15.1576 1.1474C14.484 0.441189 13.5242 0 12.4621 0C10.0784 0 8.32609 2.18879 8.86483 4.46163C5.79565 4.31014 3.0745 2.86345 1.25314 0.665158C0.285772 2.29798 0.751369 4.43485 2.39597 5.51639C1.79069 5.49756 1.22112 5.33408 0.72332 5.06183C0.683257 6.74534 1.90931 8.31953 3.68524 8.67066C3.16551 8.80981 2.59624 8.84167 2.01762 8.73286C2.48745 10.1764 3.85134 11.227 5.46733 11.2562C3.91474 12.4534 1.95929 12.9881 0 12.761C1.63424 13.7919 3.5754 14.3935 5.66087 14.3935C12.5171 14.3935 16.3907 8.69538 16.1573 3.58475C16.8789 3.07246 17.5049 2.43249 18 1.7038C17.3378 1.99285 16.626 2.18823 15.879 2.27597Z" fill="white"/>
</svg>
