<svg width="17" height="16" viewBox="0 0 17 16" fill="none" xmlns="http://www.w3.org/2000/svg">
    <path d="M7.83112 2.09444L9.53967 7.53324L9.93232 6.95192C10.8324 5.59491 11.2939 4.71149 11.2939 4.3941C11.2939 4.15737 10.9872 3.99463 10.1645 3.99463C9.9196 3.99463 9.73989 3.75041 9.79929 3.49829C10.3427 1.19185 11.7467 0 13.9291 0C16.8765 0 17.5923 2.78469 16.5451 6.11827C16.1656 7.32626 14.5038 9.86027 11.5302 13.7875L10.8563 14.6719C10.4628 15.1855 9.94335 15.5738 9.35514 15.7941C7.59059 16.4549 5.65528 15.4728 5.03249 13.6004L2.67787 6.52139C2.65917 6.46515 2.62882 6.41406 2.58907 6.37188C2.44206 6.21588 2.20369 6.21588 2.05667 6.37188L1.3956 7.07334C1.19772 7.28332 0.860758 7.19891 0.77226 6.9172L0.0193345 4.52042C-0.0286261 4.36774 0.0144365 4.19944 0.128576 4.09347L3.59579 0.874298C3.85916 0.629775 4.16578 0.443362 4.49778 0.325936C5.87849 -0.162421 7.37088 0.629363 7.83112 2.09444Z" fill="white"/>
</svg>
